<?xml version="1.0" encoding="utf-8"?>
<!-- Generator: Adobe Illustrator 23.0.3, SVG Export Plug-In . SVG Version: 6.00 Build 0)  -->
<svg version="1.1" id="regular" xmlns="http://www.w3.org/2000/svg" xmlns:xlink="http://www.w3.org/1999/xlink" x="0px" y="0px"
	 viewBox="0 0 512 512" enable-background="new 0 0 512 512" xml:space="preserve" fill="#fff">
<path d="M73,496c0,12.2,13.2,19.9,23.9,14l87.3-49.1c80.7,21.8,167.5,5.8,233.5-43.4c60-44.7,94.4-111.2,94.4-182.3
	C512,105.5,397.2,0,256,0S0,105.5,0,235.1c0,62.2,25.9,120.3,73,164.2V496z M32,235.1C32,123.1,132.5,32,256,32s224,91.1,224,203.1
	c0,60.9-29.7,118-81.5,156.6c-59.7,44.5-138.9,58.2-211.8,36.5c-4.2-1.2-8.6-0.7-12.4,1.4l-69.2,39v-76.4c0-4.6-2-9-5.4-12
	C56,341.9,32,290.4,32,235.1L32,235.1z"/>
<path d="M103.1,323.6l117.5-58.8l55.9,57.4c7.3,7.5,17.5,5.5,22.9,0.1l128-129.8c12.7-12.9-2.6-33.7-18.7-25.5l-117.5,60l-55.8-56.9
	c-6-6.1-16.1-6.7-22.7-0.1l-128,128C71.9,310.8,87,331.7,103.1,323.6L103.1,323.6z M223.9,204.1l52.7,53.8c4.9,5,12.5,6.2,18.7,3.1
	l39.8-20.3l-47,47.6l-52.6-54.1c-4.9-5-12.4-6.3-18.6-3.2L177,250.9L223.9,204.1z"/>
</svg>
