<?xml version="1.0" encoding="utf-8"?>
<!-- Generator: Adobe Illustrator 25.0.1, SVG Export Plug-In . SVG Version: 6.00 Build 0)  -->
<svg version="1.1" id="Layer_1" xmlns="http://www.w3.org/2000/svg" xmlns:xlink="http://www.w3.org/1999/xlink" x="0px" y="0px"
	 viewBox="0 0 100 100" style="enable-background:new 0 0 100 100;" xml:space="preserve" fill="#ffffff">
<g id="kDfCum_1_">
	<g>
		<path d="M46.24,87.77c-11.46,0-22.81,0-34.19,0c0-11.39,0-22.75,0-34.18c0.22-0.01,0.44-0.03,0.66-0.03
			c10.92,0,21.85,0,32.77-0.02c0.64,0,0.78,0.19,0.78,0.8c-0.02,10.91-0.01,21.81-0.01,32.72C46.24,87.27,46.24,87.49,46.24,87.77z
			 M39.34,80.86c0-6.84,0-13.61,0-20.41c-6.84,0-13.63,0-20.45,0c0,6.82,0,13.6,0,20.41C25.72,80.86,32.5,80.86,39.34,80.86z"/>
		<path d="M87.28,12.51c0,11.4,0,22.75,0,34.17c-0.24,0.01-0.46,0.03-0.67,0.03c-10.92,0-21.85,0-32.77,0.02
			c-0.64,0-0.78-0.19-0.78-0.8c0.02-10.91,0.01-21.81,0.01-32.72c0-0.22,0-0.44,0-0.7C64.5,12.51,75.86,12.51,87.28,12.51z
			 M59.96,39.82c6.84,0,13.63,0,20.45,0c0-6.83,0-13.63,0-20.46c-6.83,0-13.63,0-20.45,0C59.96,26.19,59.96,32.97,59.96,39.82z"/>
		<path d="M12.03,46.71c0-11.44,0-22.8,0-34.19c11.37,0,22.73,0,34.17,0c0.01,0.2,0.03,0.42,0.03,0.64c0,10.95,0,21.89,0.01,32.84
			c0,0.55-0.13,0.73-0.71,0.73c-10.96-0.02-21.93-0.01-32.89-0.01C12.46,46.71,12.28,46.71,12.03,46.71z M18.89,19.36
			c0,6.85,0,13.64,0,20.46c6.84,0,13.63,0,20.45,0c0-6.84,0-13.63,0-20.46C32.52,19.36,25.74,19.36,18.89,19.36z"/>
		<path d="M66.76,74.06c0-2.04,0-4.01,0-5.99c0-0.84,0-0.84-0.83-0.84c-1.75,0-3.5,0-5.24,0c-0.22,0-0.44,0-0.73,0
			c0,6.86,0,13.66,0,20.5c-2.31,0-4.56,0-6.88,0c0-0.25,0-0.49,0-0.73c0-10.88,0-21.77,0-32.65c0-0.81,0-0.81,0.8-0.81
			c6.34,0,12.67,0,19.01,0c0.22,0,0.44,0,0.73,0c0,2.3,0,4.53,0,6.81c2.29,0,4.52,0,6.81,0c0.01-0.25,0.03-0.49,0.03-0.73
			c0-1.83,0-3.66,0-5.49c0-0.28-0.06-0.59,0.4-0.59c2.12,0.01,4.23,0,6.4,0c0,6.85,0,13.66,0,20.51
			C80.44,74.06,73.65,74.06,66.76,74.06z"/>
		<path d="M80.5,80.98c2.26,0,4.49,0,6.76,0c0,2.26,0,4.5,0,6.78c-2.25,0-4.48,0-6.76,0C80.5,85.51,80.5,83.27,80.5,80.98z"/>
		<path d="M73.58,80.94c0,2.32,0,4.55,0,6.81c-2.26,0-4.49,0-6.76,0c-0.02-0.16-0.06-0.31-0.06-0.47c0-1.93,0-3.86,0-5.79
			c0-0.26-0.06-0.56,0.36-0.56C69.25,80.95,71.39,80.94,73.58,80.94z"/>
		<path d="M25.75,67.24c2.18,0,4.26-0.01,6.33,0.02c0.16,0,0.44,0.25,0.44,0.39c0.03,2.12,0.02,4.23,0.02,6.4c-2.27,0-4.51,0-6.79,0
			C25.75,71.81,25.75,69.54,25.75,67.24z"/>
		<path d="M66.81,26.19c2.27,0,4.48,0,6.75,0c0,2.26,0,4.5,0,6.83c-0.57,0-1.12,0-1.67,0c-1.52,0-3.04-0.01-4.57,0
			c-0.35,0-0.59-0.03-0.58-0.49c0.02-2.02,0.01-4.03,0.01-6.05C66.76,26.41,66.79,26.33,66.81,26.19z"/>
		<path d="M32.55,26.21c0,0.81,0,1.58,0,2.36c0,1.3,0,2.59,0,3.89c0,0.31,0.01,0.57-0.43,0.57c-2.06-0.01-4.11-0.01-6.17-0.01
			c-0.06,0-0.11-0.03-0.21-0.06c0-2.23,0-4.46,0-6.73C27.98,26.21,30.23,26.21,32.55,26.21z"/>
	</g>
</g>
</svg>
