<?xml version="1.0" encoding="utf-8"?>
<!-- Generator: Adobe Illustrator 23.0.3, SVG Export Plug-In . SVG Version: 6.00 Build 0)  -->
<svg version="1.1" id="Layer_1" xmlns="http://www.w3.org/2000/svg" xmlns:xlink="http://www.w3.org/1999/xlink" x="0px" y="0px"
	 viewBox="0 0 512 512" style="enable-background:new 0 0 512 512;" xml:space="preserve">
<style type="text/css">
	.st0{fill:#FFFFFF;}
</style>
<path class="st0" d="M453.3,512H58.7C26.3,512,0,485.7,0,453.3V144c0-32.4,26.3-58.7,58.7-58.7h74.7c8.8,0,16,7.2,16,16
	s-7.2,16-16,16H58.7C44,117.3,32,129.3,32,144v309.3C32,468,44,480,58.7,480h394.7c14.7,0,26.7-12,26.7-26.7V272c0-8.8,7.2-16,16-16
	s16,7.2,16,16v181.3C512,485.7,485.7,512,453.3,512z"/>
<path class="st0" d="M144,341.1c-1.2,0-2.3-0.1-3.5-0.4c-7.2-1.7-12.5-7.9-12.5-15.3v-32c0-114.7,93.3-208,208-208h5.3V16
	c0-6.5,4-12.4,10-14.8c6-2.4,13-1,17.5,3.8l138.7,144c6,6.2,6,16,0,22.2l-138.7,144c-4.5,4.7-11.5,6.2-17.5,3.8
	c-6.1-2.5-10-8.3-10-14.8v-69.3H316c-67.1,0-127.4,37.3-157.4,97.3C155.8,337.5,150,341.1,144,341.1z M336,117.3
	c-89.6,0-163.8,67.3-174.7,154c38.8-43.3,94.4-68.7,154.6-68.7h41.3c8.8,0,16,7.2,16,16v45.7L473.8,160L373.3,55.7v45.7
	c0,8.8-7.2,16-16,16H336z"/>
</svg>
