<?xml version="1.0" encoding="utf-8"?>
<!-- Generator: Adobe Illustrator 23.0.3, SVG Export Plug-In . SVG Version: 6.00 Build 0)  -->
<svg version="1.1" id="Capa_1" xmlns="http://www.w3.org/2000/svg" xmlns:xlink="http://www.w3.org/1999/xlink" x="0px" y="0px"
	 viewBox="0 0 426.7 426.7" style="enable-background:new 0 0 426.7 426.7;" xml:space="preserve">
<style type="text/css">
	.st0{fill:#FFFFFF;}
</style>
<g>
	<g>
		<path class="st0" d="M352,256c-27.9,0-52,15.6-64.8,38.3l-139.8-53.8c1.2-5.3,2-10.8,2-16.5c0-7.4-1.4-14.4-3.4-21.1l143.6-66.3
			c13.3,20.5,36.3,34.1,62.5,34.1c41.2,0,74.7-33.5,74.7-74.7S393.2,21.3,352,21.3S277.3,54.8,277.3,96c0,7.4,1.4,14.4,3.4,21.1
			l-143.6,66.3c-13.3-20.5-36.3-34.1-62.5-34.1C33.5,149.3,0,182.8,0,224s33.5,74.7,74.7,74.7c27.9,0,52-15.6,64.8-38.3l139.8,53.8
			c-1.2,5.3-2,10.8-2,16.5c0,41.2,33.5,74.7,74.7,74.7s74.7-33.5,74.7-74.7C426.7,289.5,393.2,256,352,256z M352,42.7
			c29.4,0,53.3,23.9,53.3,53.3s-23.9,53.3-53.3,53.3s-53.3-23.9-53.3-53.3S322.6,42.7,352,42.7z M74.7,277.3
			c-29.4,0-53.3-23.9-53.3-53.3s23.9-53.3,53.3-53.3S128,194.6,128,224S104.1,277.3,74.7,277.3z M352,384
			c-29.4,0-53.3-23.9-53.3-53.3s23.9-53.3,53.3-53.3s53.3,23.9,53.3,53.3S381.4,384,352,384z"/>
	</g>
</g>
</svg>
