<?xml version="1.0" encoding="utf-8"?>
<!-- Generator: Adobe Illustrator 23.0.3, SVG Export Plug-In . SVG Version: 6.00 Build 0)  -->
<svg version="1.1" id="Layer_1" xmlns="http://www.w3.org/2000/svg" xmlns:xlink="http://www.w3.org/1999/xlink" x="0px" y="0px"
	 viewBox="0 0 512 512" enable-background="new 0 0 512 512" xml:space="preserve" fill="#fff">
<path d="M256,0C114.8,0,0,114.8,0,256s114.8,256,256,256s256-114.8,256-256S397.2,0,256,0z M241,125.7c-22.8-1-45.4-4.2-67-9.4
	c3.4-8.2,7.2-16,11.2-23.4C201.8,62.3,222.1,41,241,33.2V125.7z M241,155.7V241h-93.7c1.3-33.3,7-66.4,16.4-96.4
	C188.6,150.8,214.7,154.6,241,155.7z M241,271v85.3c-26.3,1.1-52.4,4.8-77.3,11.1c-9.4-30.1-15.1-63.1-16.4-96.4H241z M241,386.3
	v92.4c-18.9-7.7-39.2-29.1-55.8-59.6c-4-7.4-7.8-15.3-11.2-23.4C195.6,390.5,218.2,387.3,241,386.3z M271,386.3
	c22.8,1,45.4,4.2,67,9.4c-3.4,8.2-7.2,16-11.2,23.4c-16.5,30.5-36.8,51.9-55.8,59.6V386.3z M271,356.3V271h93.7
	c-1.3,33.3-7,66.4-16.4,96.4C323.4,361.2,297.3,357.4,271,356.3z M271,241v-85.3c26.3-1.1,52.4-4.8,77.3-11.1
	c9.4,30.1,15.1,63.1,16.4,96.4H271z M271,125.7V33.2c18.9,7.7,39.2,29.1,55.8,59.6c4,7.4,7.8,15.3,11.2,23.4
	C316.4,121.5,293.8,124.7,271,125.7z M353.1,78.5c-7.5-13.8-15.7-26-24.3-36.5c30,10.2,57.2,26.6,80,47.6c-13,7-27.1,13-41.8,18.1
	C362.8,97.6,358.2,87.8,353.1,78.5z M158.9,78.5c-5.1,9.3-9.7,19.1-13.9,29.3c-14.8-5.1-28.8-11.1-41.8-18.1
	c22.8-21,50-37.4,80-47.6C174.5,52.5,166.4,64.7,158.9,78.5z M134.8,136c-10.2,32.8-16.3,68.5-17.6,105H30.5
	c3.2-48.8,21.9-93.3,51.3-128.8C98.1,121.5,115.9,129.5,134.8,136z M117.3,271c1.3,36.5,7.3,72.2,17.6,105
	c-18.9,6.5-36.7,14.5-53,23.8C52.4,364.3,33.7,319.8,30.5,271H117.3z M145,404.2c4.2,10.2,8.8,20,13.9,29.3
	c7.5,13.8,15.7,26,24.3,36.5c-30-10.2-57.2-26.6-80-47.6C116.2,415.3,130.2,409.3,145,404.2z M353.1,433.5
	c5.1-9.3,9.7-19.1,13.9-29.3c14.8,5.1,28.8,11.1,41.8,18.1c-22.8,21-50,37.4-80,47.6C337.5,459.5,345.6,447.3,353.1,433.5z
	 M377.2,376c10.2-32.8,16.3-68.5,17.6-105h86.8c-3.2,48.8-21.9,93.3-51.3,128.8C413.9,390.5,396.1,382.5,377.2,376z M394.7,241
	c-1.3-36.5-7.3-72.2-17.6-105c18.9-6.5,36.7-14.5,53-23.8c29.4,35.5,48.1,80.1,51.3,128.8H394.7z"/>
</svg>
