<?xml version="1.0" encoding="utf-8"?>
<!-- Generator: Adobe Illustrator 23.0.3, SVG Export Plug-In . SVG Version: 6.00 Build 0)  -->
<svg version="1.1" id="Layer_1" xmlns="http://www.w3.org/2000/svg" xmlns:xlink="http://www.w3.org/1999/xlink" x="0px" y="0px"
	 viewBox="0 0 512 512" style="enable-background:new 0 0 512 512;" xml:space="preserve">
<g id="vJWsXW_1_">
	<g>
		<path d="M487,513c-153.3,0-306.7,0-460,0c-0.4-0.3-0.8-0.6-1.3-0.7C9.8,507.8,2,497.5,2,480.9c0-10.5,0-21,0-31.5
			c0-18.6,12.6-31.3,31.3-31.4c5.4-0.1,10.9,0,16.4,0c0-75.6,0-150.6,0-226c-5.9,0-11.6,0.1-17.2,0C14.6,191.7,2.1,179.2,2,161.3
			c-0.1-11.7,0-23.3,0-35c0-16.8,5.9-25.8,21.6-32.2C78.2,71.7,132.8,49.3,187.4,27c21.2-8.7,42.4-17.3,63.6-26c4,0,8,0,12,0
			c1.8,0.8,3.6,1.5,5.4,2.3C343,33.8,417.7,64.3,492.3,94.9c13.2,5.4,19.6,15.4,19.7,29.5c0.1,12,0.1,24,0,36
			c-0.1,19-12.6,31.5-31.7,31.6c-5.3,0-10.6,0-16,0c0,75.6,0,150.6,0,226c5.9,0,11.6-0.1,17.2,0c17.5,0.3,30.2,12.8,30.4,30.4
			c0.2,11.8,0.2,23.7,0,35.5c-0.1,8-2.8,15.4-9.1,20.3C498.2,507.9,492.3,510.1,487,513z M482,161.8c0-11.5-0.1-22.8,0.1-34.1
			c0.1-3.6-1.1-5.2-4.4-6.5c-72.3-29.4-144.5-59-216.7-88.3c-2.3-0.9-5.6-1-7.8,0c-68.3,27.7-136.5,55.6-204.7,83.5
			c-5.4,2.2-12.8,3.2-15.4,7.3c-2.8,4.3-1,11.5-1,17.5c-0.1,5.7,0,11.3,0,17c0,1.3,0.2,2.5,0.4,3.7
			C182.3,161.8,331.9,161.8,482,161.8z M32.2,482.7c150.1,0,299.8,0,449.4,0c0-11.7,0-23.1,0-34.4c-150,0-299.6,0-449.4,0
			C32.2,459.8,32.2,471,32.2,482.7z M144.3,192.2c0,75.5,0,150.5,0,225.4c22.1,0,43.8,0,65.4,0c0-75.3,0-150.2,0-225.4
			C187.9,192.2,166.3,192.2,144.3,192.2z M369.7,417.8c0-75.4,0-150.5,0-225.4c-22.1,0-43.8,0-65.4,0c0,75.3,0,150.2,0,225.4
			C326.1,417.8,347.7,417.8,369.7,417.8z M113.7,192.4c-11.4,0-22.5,0-33.4,0c0,75.4,0,150.4,0,225.4c11.3,0,22.2,0,33.4,0
			C113.7,342.6,113.7,267.7,113.7,192.4z M273.7,417.8c0-75.4,0-150.5,0-225.4c-11.4,0-22.4,0-33.4,0c0,75.3,0,150.2,0,225.4
			C251.4,417.8,262.4,417.8,273.7,417.8z M433.7,417.8c0-75.5,0-150.5,0-225.5c-11.3,0-22.2,0-33.4,0c0,75.3,0,150.3,0,225.5
			C411.5,417.8,422.4,417.8,433.7,417.8z"/>
		<path d="M272,96.9c0,5.3,0.1,10.6,0,16c-0.3,8.6-6.6,15-14.8,15.1c-8.3,0.1-15-6.4-15.1-15.2c-0.2-10.5-0.1-20.9,0-31.4
			c0.1-9.1,6.2-15.4,14.8-15.4c8.8-0.1,14.9,6.2,15.1,15.6C272.1,86.6,272,91.8,272,96.9z"/>
	</g>
</g>
</svg>
