<?xml version="1.0" encoding="utf-8"?>
<!-- Generator: Adobe Illustrator 23.0.3, SVG Export Plug-In . SVG Version: 6.00 Build 0)  -->
<svg version="1.1" id="Layer_1" xmlns="http://www.w3.org/2000/svg" xmlns:xlink="http://www.w3.org/1999/xlink" x="0px" y="0px"
	 viewBox="0 0 1000 1000" style="enable-background:new 0 0 1000 1000;" xml:space="preserve">
<g>
	<path d="M577.6,308.4c-0.1,0-0.1,0-0.2,0l-0.2,0c-13.1,0-26.1,0-39.2,0l-59.3,0l-53.5,0c-5,0-15.5,0-24-8.7c-8.5-8.7-8.1-19-8-23.9
		l0-0.6c0.6-18.3,3.5-36.7,9-56.2c6.3-22.5,15.2-40.9,27.2-56.1c24.5-31.2,66.2-43.4,101.5-29.5c13.4,5.3,24.8,13.6,35.7,26
		c18.6,21.3,26.9,46.2,31.6,63.1c4.6,16.9,7.9,34.9,9.6,53.5c1.1,11.9-4.2,19.6-7.4,23.2C594.6,305.3,587,308.4,577.6,308.4z
		 M448.2,255.5l89.7,0c4.5,0,8.9,0,13.4,0c-1.2-6.4-2.7-12.7-4.4-19c-5.2-19.1-11.5-32.1-20.3-42.2c-5.3-6-9.8-9.5-15.2-11.6
		c-13.2-5.2-30.5,0.3-40.3,12.9c-7.7,9.8-13.4,21.8-17.8,37.8C451.1,240.9,449.4,248.3,448.2,255.5z"/>
</g>
<g>
	<path d="M508.4,863.9l-1.2,0c-53.2-1.1-100.5-17.8-144.5-51.2c-12.7-9.6-19.3-24-17.6-38.4c1.7-14.3,11.2-26.6,25.5-32.9
		c10.1-4.5,22.8-4.4,33.1,0.2c6.2,2.7,11.2,6.3,15.2,9.1c1.4,1,2.8,1.9,3.9,2.7c23.6,15.1,46.8,23.9,71,27c24.8,3.1,45.8-0.5,64-11
		c12.9-7.4,20.3-18.6,20.9-31.3c0.7-13.9-7-28-20.6-37.7c-23.6-16.8-51.1-27.4-77.3-36.8c-22.9-8.2-56.5-22.1-84.7-48.6
		c-45.8-42.9-47.5-109.8-4-159.1c21.6-24.5,49.9-39.4,84.1-44.5c51.7-7.6,100.3,4.6,144.4,36.3c15.6,11.2,19.8,32.1,10.4,50.8
		c-10,19.8-30.9,28-49.6,19.5c-5.2-2.4-9.7-5.1-13.8-7.4c-2.4-1.4-4.8-2.8-6.9-3.9c-25.4-13.1-46.9-17.7-67.8-14.4
		c-23.2,3.6-44,18.6-48.2,34.9c-3.2,12.2-0.1,21.4,9.7,29c17.3,13.4,38.1,23.9,63.4,31.9c35.6,11.4,62.9,24.7,85.8,42
		c18.8,14.2,45,37.4,54.1,74.8c11.1,45.5-0.7,86.2-34.2,117.9c-24.6,23.3-55.5,36.2-94.6,39.6c-5.5,0.5-10.8,0.8-15,1.1
		c-1.6,0.1-3,0.2-4.2,0.3L508.4,863.9z"/>
</g>
<g>
	<path d="M500.4,71c11.3,0,22.6,1.4,33.9,4.2c17.8,4.5,34,13,47.9,24.7c39,32.6,59.8,76.1,72.4,124.2c6.6,25.3,11.7,50.8,11.7,77.1
		c0,5.5,3.3,6.6,8,6.6c0,0,0.1,0,0.1,0c11.9-0.1,23.7-0.1,35.6-0.1c11.5,0,23,0,34.5,0c35.1,0,70.1,0.1,105.2,0.2
		c15.8,0,31.3,12.4,32,28.2c0.8,17.1-0.6,34.4-1.6,51.6c-2.1,34.7-4.3,69.5-6.9,104.2c-2,27.3-4.7,54.6-6.9,81.9
		c-1.1,14-1.7,28-2.7,41.9c-2,26.7-4.1,53.4-6.1,80.1c-1,13.5-2,27.1-3,40.6c-1.7,22.2-3.4,44.3-5,66.5c-1,13.6-0.7,27.4-3.3,40.6
		c-5.1,26.1-15.2,50-36.9,67.2c-15,11.9-32.4,18.2-51.6,18.2c-40,0.1-80.1,0.1-120.1,0.1c-46.1,0-92.2,0-138.3,0c-0.3,0-0.6,0-0.9,0
		c-49.7,0-99.3,0.1-149,0.1c-25,0-50,0-75-0.1c-10.7,0-21.4-0.1-32.1-0.2c-42.2-0.3-70.9-23.7-84-67.7c-4.2-14.1-5.3-29.3-6.5-44.1
		c-2.7-32.9-4.7-65.9-7-98.8c-3-44.2-6-88.4-9-132.5c-1.7-24.6-3.3-49.2-5.2-73.7c-2.6-33.6-5.6-67.1-8.3-100.6
		c-1.6-20-3.1-40-4.3-60.1c-0.9-14.4,1.7-27.7,14.4-36.9c7.8-5.6,16.8-6.6,25.9-6.6c27.2,0,54.4,0,81.6,0c19,0,38,0,57,0
		c8.3,0,16.7,0,25,0c10.8,0,11.8-1,12-11.8c0.4-24.5,5-48.4,11-72.1c7.9-31.1,18.9-60.9,37.2-87.7c12.7-18.6,28-34.4,47.2-46.2
		c13.2-8.2,27.5-13.1,42.7-16.1C481.6,71.9,491,71,500.4,71 M500.4,18C500.4,18,500.4,18,500.4,18c-12.7,0-25.7,1.3-38.6,3.8
		c-22.7,4.5-42.4,12-60.2,23c-24.7,15.3-45.4,35.4-63.2,61.5c-19.8,29-34,62.2-44.7,104.5c-4.1,16-7.1,30.4-9.2,43.9l-16.1,0
		l-28.5,0c-24.2,0-52.8,0-81.7,0c-14.6,0-36.4,1.8-57,16.7c-18,13.1-38.8,38-36.1,82.8c1.3,21.1,2.8,41.9,4.4,61.2
		c1.2,15.4,2.5,31.1,3.8,46.2c1.5,17.8,3,36.3,4.5,54.3c1.5,19,2.8,38.5,4.1,57.3c0.4,5.3,0.7,10.6,1.1,15.9
		c1.7,25.2,3.4,50.3,5.2,75.5c1.3,19,2.6,38,3.9,57c0.6,9,1.2,18.2,1.8,27.1c1.6,23.7,3.2,48.2,5.2,72.5l0.2,2.3
		c1.3,15.9,2.8,33.9,8.4,52.5c9.7,32.4,26,58,48.6,76.2c12,9.7,25.6,17.1,40.5,22c14.1,4.7,29.4,7.1,45.4,7.2
		c10.4,0.1,21.2,0.1,32.3,0.2c22.5,0.1,47.1,0.1,75.3,0.1c24.9,0,50.1,0,74.6-0.1c24.4,0,49.6-0.1,74.4-0.1h0.9
		c22.1,0,44.3,0,66.4,0c23.9,0,47.9,0,71.8,0c47.2,0,85.4,0,120.2-0.1c30.8,0,59.9-10.3,84.4-29.6c16.1-12.7,29.2-28.7,38.8-47.5
		c7.8-15.1,13.4-31.8,17.1-51.1c2.5-12.9,3-25,3.5-35.6c0.2-4,0.3-7.8,0.6-11.2c0.8-10.4,1.6-20.9,2.4-31.3
		c0.9-11.7,1.8-23.4,2.6-35.2c0.5-6.3,0.9-12.6,1.4-18.8c0.5-7.1,1-14.5,1.6-21.7c0.8-10.3,1.6-20.6,2.4-30.8
		c1.2-16.2,2.5-32.9,3.7-49.4c0.5-6.7,0.9-13.3,1.3-19.7c0.5-7.6,0.9-14.8,1.5-21.9c0.9-11.3,1.9-22.9,2.9-34.2
		c1.4-15.7,2.8-31.9,4-48c2.5-33.7,4.8-68,6.9-104.9c0.1-2.2,0.3-4.4,0.4-6.7c1-16.1,2-32.8,1.2-50.5c-0.5-11.7-3.6-23-9.2-33.5
		c-4.9-9.2-11.5-17.4-19.6-24.3c-15.7-13.4-35.6-20.9-56-20.9c-37.9-0.1-72.3-0.1-105.2-0.2l-4.4,0c-8.3,0-16.6,0-24.9,0
		c-2.6-16.4-6.2-31.4-9.6-44.1c-8-30.5-18.2-56.8-31.3-80.2c-15.4-27.7-35-51.6-58.4-71.2c-20.4-17.1-43.6-29-68.9-35.4
		C531.9,20,516.2,18,500.4,18L500.4,18L500.4,18z"/>
</g>
</svg>
