<?xml version="1.0" encoding="utf-8"?>
<!-- Generator: Adobe Illustrator 23.0.3, SVG Export Plug-In . SVG Version: 6.00 Build 0)  -->
<svg version="1.1" id="Layer_1" xmlns="http://www.w3.org/2000/svg" xmlns:xlink="http://www.w3.org/1999/xlink" x="0px" y="0px"
	 viewBox="0 0 1000 1000" style="enable-background:new 0 0 1000 1000;" xml:space="preserve">
<path d="M886.5,287.8c-38.7-0.1-77.5-0.2-116.2-0.2c-25.8,0-51.6-0.1-77.5,0c-5.3,0-9-1.1-9-7.3c0-29-5.6-57.2-13-85.2
	c-14-53.1-36.9-101.2-80-137.2c-15.4-12.9-33.3-22.3-53-27.3c-22.7-5.8-45.6-6.1-68.7-1.6c-16.8,3.3-32.6,8.8-47.1,17.8
	C400.8,60,383.9,77.4,369.9,98c-20.2,29.6-32.3,62.6-41.1,96.9c-6.6,26.1-11.7,52.5-12.2,79.6c-0.2,12-1.3,13-13.3,13
	c-60.2,0-120.5,0-180.7,0c-10.1,0-20,1-28.6,7.3c-14,10.2-16.9,24.9-15.9,40.7c1.3,22.1,3,44.3,4.8,66.4c3,37.1,6.2,74.1,9.1,111.2
	c2.1,27.1,3.9,54.3,5.8,81.4c3.4,48.8,6.7,97.6,10,146.4c2.5,36.4,4.7,72.8,7.7,109.2c1.4,16.3,2.6,33.1,7.2,48.7
	c14.5,48.5,46.2,74.4,92.8,74.7c11.8,0.1,23.7,0.1,35.5,0.2c82.8,0.3,165.7,0,248.5,0c95.2,0,190.3,0.1,285.5-0.1
	c21.2,0,40.4-7,57-20.1c23.9-18.9,35.1-45.4,40.7-74.2c2.8-14.6,2.5-29.9,3.6-44.9c1.8-24.5,3.7-49,5.5-73.5
	c1.1-15,2.1-29.9,3.3-44.9c2.2-29.5,4.6-59,6.7-88.5c1.1-15.4,1.8-30.9,3-46.3c2.4-30.2,5.3-60.3,7.6-90.4
	c2.8-38.3,5.3-76.7,7.6-115.1c1.1-19,2.6-38.1,1.8-57C921,301.5,904,287.8,886.5,287.8z M366.4,277.6c0.9-28.3,5.7-55.9,13.3-83
	c7.9-28.2,19.2-54.8,37.4-78.1c27.9-35.6,76.9-51.4,118-35.2c17.4,6.9,30.5,17.7,42.4,31.4c22.2,25.4,34.4,55.5,43.2,87.6
	c7.3,26.7,12,53.8,14.6,81.4c0.6,6.2-2.7,5.9-6.8,5.9c-28.9,0-57.8,0-86.7,0c-13.9,0-27.7,0-41.6,0c-41.6,0-83.1,0-124.7,0
	C365.7,287.6,366.1,287.6,366.4,277.6z M615.8,805.1c-24,22.7-53.1,32.3-85.2,35.1c-7.8,0.7-15.7,1.1-20.4,1.5
	c-54.4-1.1-99.5-19-140-49.7c-11.4-8.6-10.1-21.5,2.7-27.2c3.4-1.5,8.6-1.4,12.1,0.1c6,2.7,11.3,7.1,16.9,10.7
	c27.4,17.6,57,29.7,89.3,33.7c30.7,3.9,60.5,0.2,87.9-15.6c49.8-28.7,49.3-91.2,2.7-124.4c-28-20-59.2-32.3-91.2-43.8
	c-29.8-10.7-58.2-24.4-81.9-46.6c-41.3-38.6-36.1-93.9-2.4-132c19.5-22.1,44.4-34.4,73.7-38.7c50.1-7.3,94.9,5.1,135.6,34.3
	c5.2,3.7,5.9,10.7,2.2,18.1c-3.6,7-9.4,10.4-15.5,7.7c-7.3-3.3-14-8-21.1-11.7c-28.8-14.8-58.9-23.6-91.6-18.6
	c-33.9,5.2-68,27.5-76.3,59.5c-6.4,24.5,0.9,46.7,21,62.2c23.5,18.2,49.8,30.5,78,39.5c30.1,9.6,59.1,22,84.5,41.1
	c22.2,16.8,41.1,36.9,48,64.9C654,743.6,645.1,777.3,615.8,805.1z"/>
</svg>
