<?xml version="1.0" encoding="utf-8"?>
<!-- Generator: Adobe Illustrator 23.0.3, SVG Export Plug-In . SVG Version: 6.00 Build 0)  -->
<svg version="1.1" id="Layer_1" xmlns="http://www.w3.org/2000/svg" xmlns:xlink="http://www.w3.org/1999/xlink" x="0px" y="0px"
	 viewBox="0 0 1000 1000" style="enable-background:new 0 0 1000 1000;" xml:space="preserve">
<g>
	<path d="M565.1,339.4c-0.1,0-0.1,0-0.2,0l-0.2,0c-10.9,0-21.9,0-32.8,0l-49.7,0l-44.9,0c-4.2,0-13,0-20.1-7.3
		c-7.1-7.3-6.8-15.9-6.7-20l0-0.5c0.5-15.3,2.9-30.7,7.5-47.1c5.3-18.9,12.7-34.2,22.8-47c20.5-26.2,55.5-36.3,85-24.7
		c11.3,4.4,20.8,11.4,29.9,21.8c15.6,17.9,22.6,38.7,26.5,52.9c3.9,14.2,6.6,29.3,8,44.8c0.9,10-3.5,16.5-6.2,19.4
		C579.3,336.8,572.9,339.4,565.1,339.4z M456.6,295l75.2,0c3.7,0,7.5,0,11.2,0c-1-5.4-2.2-10.7-3.7-15.9c-4.4-16-9.6-26.9-17.1-35.4
		c-4.4-5.1-8.2-8-12.8-9.8c-11-4.4-25.6,0.3-33.8,10.8c-6.5,8.3-11.2,18.3-15,31.6C459,282.8,457.6,289,456.6,295z"/>
</g>
<g>
	<path d="M507,805l-1,0c-44.6-0.9-84.2-14.9-121.2-42.9c-10.6-8.1-16.2-20.1-14.8-32.2c1.4-12,9.4-22.3,21.4-27.6
		c8.5-3.8,19.1-3.7,27.7,0.1c5.2,2.3,9.4,5.2,12.7,7.6c1.2,0.8,2.3,1.6,3.3,2.3c19.8,12.7,39.2,20.1,59.5,22.6
		c20.8,2.6,38.4-0.4,53.6-9.2c10.8-6.2,17-15.6,17.6-26.2c0.6-11.7-5.9-23.5-17.3-31.6c-19.8-14.1-42.9-23-64.8-30.9
		c-19.2-6.9-47.4-18.6-71-40.7c-38.4-36-39.8-92-3.4-133.3c18.1-20.5,41.8-33.1,70.5-37.3c43.3-6.4,84.1,3.9,121,30.5
		c13.1,9.4,16.6,26.9,8.7,42.6c-8.4,16.6-25.9,23.4-41.6,16.3c-4.3-2-8.2-4.2-11.5-6.2c-2-1.2-4-2.4-5.7-3.3
		c-21.3-11-39.3-14.8-56.8-12.1c-19.5,3-36.8,15.6-40.4,29.2c-2.7,10.3-0.1,18,8.1,24.3c14.5,11.2,31.9,20,53.2,26.8
		c29.9,9.5,52.7,20.7,72,35.2c15.8,11.9,37.7,31.4,45.4,62.7c9.3,38.1-0.6,72.3-28.6,98.8c-20.6,19.5-46.6,30.4-79.3,33.2
		c-4.6,0.4-9,0.7-12.6,0.9c-1.3,0.1-2.5,0.2-3.5,0.2L507,805z"/>
</g>
<g>
	<path d="M500.4,140.4c9.5,0,19,1.2,28.4,3.6c15,3.8,28.5,10.9,40.2,20.7c32.7,27.3,50.1,63.8,60.7,104.1
		c5.6,21.2,9.8,42.6,9.8,64.6c0,4.6,2.8,5.5,6.7,5.5c0,0,0.1,0,0.1,0c9.9,0,19.9-0.1,29.8-0.1c9.6,0,19.3,0,28.9,0
		c29.4,0,58.8,0.1,88.1,0.2c13.3,0,26.2,10.4,26.8,23.6c0.7,14.4-0.5,28.8-1.3,43.2c-1.7,29.1-3.6,58.2-5.8,87.3
		c-1.7,22.9-3.9,45.7-5.7,68.6c-0.9,11.7-1.4,23.4-2.3,35.1c-1.6,22.4-3.4,44.8-5.1,67.1c-0.9,11.4-1.6,22.7-2.5,34.1
		c-1.4,18.6-2.8,37.2-4.2,55.7c-0.9,11.4-0.6,23-2.7,34.1c-4.3,21.9-12.7,41.9-30.9,56.3c-12.6,10-27.1,15.2-43.2,15.2
		c-33.6,0-67.1,0.1-100.7,0.1c-38.6,0-77.3,0-115.9,0c-0.3,0-0.5,0-0.8,0c-41.6,0-83.2,0.1-124.9,0.1c-21,0-41.9,0-62.9-0.1
		c-9,0-18-0.1-26.9-0.1c-35.4-0.2-59.4-19.9-70.4-56.7c-3.5-11.8-4.4-24.5-5.5-36.9c-2.3-27.6-3.9-55.2-5.8-82.8
		c-2.5-37-5-74.1-7.6-111.1c-1.4-20.6-2.8-41.2-4.4-61.8c-2.2-28.1-4.7-56.2-6.9-84.3c-1.3-16.8-2.6-33.6-3.6-50.4
		c-0.7-12,1.5-23.2,12.1-30.9c6.5-4.7,14-5.5,21.7-5.5c22.8,0,45.6,0,68.4,0c15.9,0,31.8,0,47.8,0c7,0,14,0,21,0
		c9,0,9.9-0.8,10.1-9.9c0.4-20.6,4.2-40.6,9.3-60.4c6.6-26.1,15.8-51.1,31.1-73.5c10.6-15.6,23.4-28.8,39.6-38.8
		c11.1-6.8,23-11,35.8-13.5C484.6,141.2,492.5,140.4,500.4,140.4 M500.4,96C500.4,96,500.4,96,500.4,96c-10.7,0-21.5,1.1-32.3,3.2
		c-19.1,3.8-35.6,10.1-50.5,19.3c-20.7,12.8-38,29.6-53,51.6c-16.6,24.3-28.5,52.1-37.5,87.6c-3.4,13.4-5.9,25.5-7.7,36.8l-13.5,0
		l-23.9,0c-20.3,0-44.3,0-68.4,0c-12.3,0-30.5,1.5-47.8,14c-15,10.9-32.5,31.9-30.3,69.4c1,17.7,2.4,35.1,3.7,51.3
		c1,12.9,2.1,26.1,3.2,38.7c1.3,14.9,2.5,30.4,3.7,45.5c1.2,15.9,2.4,32.2,3.4,48c0.3,4.4,0.6,8.9,0.9,13.3
		c1.5,21.1,2.9,42.2,4.3,63.3c1.1,15.9,2.2,31.9,3.3,47.8c0.5,7.5,1,15.2,1.5,22.7c1.3,19.9,2.7,40.4,4.4,60.8l0.2,2
		c1.1,13.3,2.4,28.4,7,44c8.1,27.1,21.8,48.6,40.7,63.9c10.1,8.1,21.5,14.3,33.9,18.5c11.8,3.9,24.6,5.9,38,6
		c8.7,0.1,17.8,0.1,27,0.1c18.9,0.1,39.5,0.1,63.1,0.1c20.8,0,42,0,62.5-0.1c20.4,0,41.6-0.1,62.4-0.1h0.8c18.6,0,37.1,0,55.7,0
		c20.1,0,40.1,0,60.2,0c39.6,0,71.6,0,100.8-0.1c25.8,0,50.2-8.6,70.7-24.8c13.5-10.7,24.4-24.1,32.6-39.8
		c6.5-12.6,11.2-26.6,14.4-42.8c2.1-10.9,2.5-20.9,2.9-29.8c0.1-3.4,0.3-6.5,0.5-9.4c0.7-8.8,1.3-17.5,2-26.3
		c0.7-9.8,1.5-19.7,2.2-29.5c0.4-5.3,0.8-10.5,1.2-15.8c0.4-6,0.9-12.2,1.3-18.2c0.7-8.6,1.3-17.2,2-25.9c1-13.5,2.1-27.6,3.1-41.4
		c0.4-5.6,0.7-11.1,1.1-16.5c0.4-6.4,0.7-12.4,1.2-18.4c0.8-9.5,1.6-19.2,2.4-28.6c1.1-13.1,2.3-26.7,3.3-40.3
		c2.1-28.3,4-57,5.8-87.9c0.1-1.9,0.2-3.7,0.3-5.6c0.8-13.5,1.7-27.5,1-42.3c-0.4-9.8-3-19.3-7.7-28.1c-4.1-7.7-9.6-14.6-16.4-20.4
		c-13.2-11.3-29.8-17.5-46.9-17.5c-31.8-0.1-60.6-0.1-88.2-0.2l-3.7,0c-7,0-13.9,0-20.9,0c-2.2-13.8-5.2-26.3-8-37
		c-6.7-25.6-15.3-47.6-26.2-67.2C633.5,167,617,147,597.4,130.6c-17.1-14.3-36.5-24.3-57.8-29.7C526.8,97.7,513.6,96,500.4,96
		L500.4,96L500.4,96z"/>
</g>
</svg>
