<?xml version="1.0" encoding="utf-8"?>
<!-- Generator: Adobe Illustrator 25.4.0, SVG Export Plug-In . SVG Version: 6.00 Build 0)  -->
<svg version="1.1" id="Layer_1" xmlns="http://www.w3.org/2000/svg" xmlns:xlink="http://www.w3.org/1999/xlink" x="0px" y="0px"
	 viewBox="0 0 1000 1000" style="enable-background:new 0 0 1000 1000;" xml:space="preserve">
<style type="text/css">
	.st0{fill:none;stroke:#000000;stroke-width:60;stroke-miterlimit:10;}
</style>
<g>
	<path d="M524.8,443.8c0-8.1,0-14.9,0-22.1c12.9,0,25,0,37.7,0c0,58.3,0,116.5,0,175.1c-12.1,0-24.2,0-37.3,0c0-6.9,0-13.8,0-21.5
		c-1.7,0.7-2.5,0.7-2.9,1.2c-29.9,34.3-83.2,30.4-113.6-1.3C367.3,531.8,378,455,429.7,427.3c31.5-16.8,65.9-11.7,91.5,13.6
		C522,441.6,522.9,442.2,524.8,443.8z M422.9,510.2c0.1,1.8,0.2,4.7,0.4,7.5c2.5,25.8,21.7,45.3,47.2,48c24.5,2.6,47.4-12.6,54-37.5
		c2.5-9.2,3-19.4,2.1-29c-3-30.7-30.1-50.8-60.3-45.8C439.9,457.9,422.9,479.8,422.9,510.2z"/>
	<path d="M686.1,456.1c-31.2,0-60.5,0-90.2,0c0-11.8,0-22.9,0-34.5c46.7,0,93,0,140.4,0c0,9.7,0.3,19.4-0.2,29.1
		c-0.1,2.4-2.7,4.9-4.5,7c-27.4,32.8-55,65.6-82.4,98.4c-1.3,1.6-2.4,3.3-4.5,6.2c31.8,0,62.3,0,93.2,0c0,12,0,23.1,0,34.6
		c-47.8,0-95.2,0-143.6,0c0-9.7-0.3-19.2,0.2-28.7c0.1-2.4,2.6-4.9,4.4-7.1c27.4-32.8,55-65.6,82.4-98.4
		C682.5,461.1,683.6,459.4,686.1,456.1z"/>
	<path d="M299.4,557.7c12.9,0,24.6,0,36.2,0c11.7,0,23.3,0,35.4,0c0,13.2,0,25.7,0,38.8c-37.3,0-74.4,0-112.1,0
		c0-79.4,0-158.5,0-238.1c13.1,0,26.4,0,40.4,0C299.4,424.2,299.4,490.4,299.4,557.7z"/>
</g>
<path class="st0" d="M923.7,433c0,45.6-0.3,91.3,0.2,136.9c0.2,15.9-5.7,26.8-19.2,35.2c-128.8,79.6-257.5,159.5-386,239.5
	c-14.4,9-27.3,8.8-41.7-0.2C348,764.1,219,684.1,90,604.3c-12.5-7.7-18.1-17.9-18-32.5c0.2-93.1,0.2-186.2,0-279.3
	c0-15.1,5.8-25.4,18.7-33.2c51.8-31.4,103.3-63.2,154.8-95.2c10.3-6.4,19.4-6.3,29.5,0.1c47.3,29.6,94.9,58.9,142.2,88.5
	c53.1,33.2,106.5,33.8,159.9,0.9c47.2-29.1,94.5-58.2,141.3-87.9c12.5-8,22.8-7.6,35.2,0.2c50,31.4,100.4,62.4,151,93
	c13.7,8.3,19.5,19.2,19.4,35.1C923.4,340.3,923.7,386.6,923.7,433z"/>
</svg>
