<?xml version="1.0" encoding="utf-8"?>
<!-- Generator: Adobe Illustrator 25.4.0, SVG Export Plug-In . SVG Version: 6.00 Build 0)  -->
<svg version="1.1" id="Layer_1" xmlns="http://www.w3.org/2000/svg" xmlns:xlink="http://www.w3.org/1999/xlink" x="0px" y="0px"
	 viewBox="0 0 1000 1000" style="enable-background:new 0 0 1000 1000;" xml:space="preserve">
<g>
	<path d="M524.8,443.8c0-8.1,0-14.9,0-22.1c12.9,0,25,0,37.7,0c0,58.3,0,116.5,0,175.1c-12.1,0-24.2,0-37.3,0c0-6.9,0-13.8,0-21.5
		c-1.7,0.7-2.5,0.7-2.9,1.2c-29.9,34.3-83.2,30.4-113.6-1.3C367.3,531.8,378,455,429.7,427.3c31.5-16.8,65.9-11.7,91.5,13.6
		C522,441.6,522.9,442.2,524.8,443.8z M422.9,510.2c0.1,1.8,0.2,4.7,0.4,7.5c2.5,25.8,21.7,45.3,47.2,48c24.5,2.6,47.4-12.6,54-37.5
		c2.5-9.2,3-19.4,2.1-29c-3-30.7-30.1-50.8-60.3-45.8C439.9,457.9,422.9,479.8,422.9,510.2z"/>
	<path d="M686.1,456.1c-31.2,0-60.5,0-90.2,0c0-11.8,0-22.9,0-34.5c46.7,0,93,0,140.4,0c0,9.7,0.3,19.4-0.2,29.1
		c-0.1,2.4-2.7,4.9-4.5,7c-27.4,32.8-55,65.6-82.4,98.4c-1.3,1.6-2.4,3.3-4.5,6.2c31.8,0,62.3,0,93.2,0c0,12,0,23.1,0,34.6
		c-47.8,0-95.2,0-143.6,0c0-9.7-0.3-19.2,0.2-28.7c0.1-2.4,2.6-4.9,4.4-7.1c27.4-32.8,55-65.6,82.4-98.4
		C682.5,461.1,683.6,459.4,686.1,456.1z"/>
	<path d="M299.4,557.7c12.9,0,24.6,0,36.2,0c11.7,0,23.3,0,35.4,0c0,13.2,0,25.7,0,38.8c-37.3,0-74.4,0-112.1,0
		c0-79.4,0-158.5,0-238.1c13.1,0,26.4,0,40.4,0C299.4,424.2,299.4,490.4,299.4,557.7z"/>
</g>
<g>
	<path d="M498,881.2c-12.4,0-24.9-3.8-37-11.3c-116.2-72.4-242.7-151-386.8-240.1c-21.2-13.1-32.3-33.2-32.2-58
		c0.2-99,0.2-190.4,0-279.2C41.8,266.8,53,247,75,233.6c46.6-28.3,95.7-58.5,154.5-95c20-12.5,41.2-12.4,61.3,0.1
		c26.9,16.8,54.3,33.9,80.9,50.3c20.1,12.5,40.9,25.4,61.3,38.1c43.9,27.4,84.7,27.7,128.3,0.8c43.6-26.9,93.1-57.3,140.9-87.7
		c22.2-14.1,44.8-14,67.3,0.1c46.8,29.4,96.1,59.7,150.6,92.7c22.7,13.8,34.1,34.3,33.8,61.1c-0.4,33.1-0.3,66.9-0.2,99.6
		c0,13.1,0.1,26.1,0.1,39.2c0,12.9,0,25.8-0.1,38.7c-0.1,32.1-0.1,65.3,0.2,97.8c0.3,26.6-11,47.1-33.5,61.1
		C793.7,709,663.9,789.5,534.5,870.1C522.6,877.5,510.3,881.2,498,881.2z M260.1,190.3c-58.5,36.4-107.4,66.4-153.9,94.6
		c-4,2.4-4.3,3.2-4.3,7.5c0.2,88.9,0.3,180.3,0,279.5c0,4.2,0.2,4.7,3.8,6.9c144.2,89.2,270.7,167.8,387,240.2
		c5.2,3.2,5.7,2.9,10,0.2C632.2,738.6,762.1,658,888.8,579.6c4.2-2.6,5.1-3.6,5-9.3c-0.4-32.9-0.3-66.4-0.2-98.7
		c0-12.9,0.1-25.7,0.1-38.6c0-13,0-26.1-0.1-39.1c-0.1-32.9-0.1-66.8,0.2-100.3c0.1-5.6-0.7-6.5-4.9-9.1
		c-54.8-33.2-104.3-63.7-151.4-93.3c-0.8-0.5-1.4-0.8-1.8-1c-0.4,0.2-0.8,0.4-1.4,0.8c-48.2,30.6-97.8,61.1-141.6,88.1
		c-31.4,19.3-63.7,29-96,28.7c-32.1-0.2-64.2-10.3-95.5-29.8c-20.4-12.7-41.1-25.6-61.2-38C313.8,223.8,286.7,206.9,260.1,190.3z
		 M258,189C258,189,258,189,258,189L258,189z"/>
</g>
</svg>
