<?xml version="1.0" encoding="utf-8"?>
<!-- Generator: Adobe Illustrator 25.4.0, SVG Export Plug-In . SVG Version: 6.00 Build 0)  -->
<svg version="1.1" id="Capa_1" xmlns="http://www.w3.org/2000/svg" xmlns:xlink="http://www.w3.org/1999/xlink" x="0px" y="0px"
	 viewBox="0 0 512 512" style="enable-background:new 0 0 512 512;" xml:space="preserve">
<g id="sujlQ4_00000074407063897837108370000007286079932942395317_">
	<g>
		<path d="M41.1,121c0-6.7,0-13.3,0-20c0-7.3,2-10.3,8.6-13c36.9-15,74.9-17.3,113.8-9.5c32.3,6.5,61.8,19.5,88.8,38.1
			c2.8,1.9,4.5,2,7.4,0.1c33-22.7,69.2-36.9,109-41.3c31.8-3.5,62.8,0.3,92.6,12.2c7.9,3.2,9.6,5.8,9.6,14.3c0,6,0,12,0.1,18
			c0,0.3,0.2,0.6,0.5,1.7c7.2,0,14.6,0,22.1,0c16.8,0,18.5,1.7,18.5,18.6c0,94.3,0,188.6,0,282.9c0,11.2-3.4,14.7-14.6,14.7
			c-160.9,0-321.9,0-482.8,0C3.4,437.9,0,434.4,0,423.3C0,327.6,0,232,0,136.3c0-11.6,3.2-14.7,14.9-14.7c8.2,0,16.3-0.1,24.5-0.1
			C39.7,121.5,40,121.3,41.1,121z M244.9,406.2c0.1-1.6,0.3-2.7,0.3-3.8c0-87,0-174-0.1-261c0-2-1.5-5-3.2-5.9
			c-15.2-8.6-30-18.2-46-24.8c-41.8-17.2-84.8-20.6-128.4-6.6c-3.7,1.2-5.1,2.8-5.1,6.9c0.1,87.2,0.1,174.3,0.1,261.5
			c0,1.7,0.2,3.5,0.3,5.3C128.1,358.8,188,372,244.9,406.2z M266.8,406.3c57.5-34.4,117.4-47.5,182.8-28.5c0-2.4,0-4.3,0-6.3
			c0-33.2,0-66.3,0-99.5c0-53.7-0.1-107.3,0.1-161c0-4.1-1.1-6.2-5-7c-13.9-2.7-27.6-6.9-41.6-7.9c-48.6-3.5-92.2,11.4-132.2,38.4
			c-3.1,2.1-4.2,4.4-4.2,8.1c0.1,86,0.1,172,0.1,257.9C266.8,402.3,266.8,403.9,266.8,406.3z M218.5,416.1c-1.9-1.2-2.4-1.6-3-1.9
			c-51.4-25.4-104-32.8-158.7-11.2c-4,1.6-7.8,1.6-11.4-1c-4-2.9-4.4-7.1-4.4-11.6c0-80.3,0-160.6,0-240.9c0-2.1,0-4.2,0-6.2
			c-7,0-13.2,0-19.5,0c0,91.1,0,181.8,0,272.8C87,416.1,152,416.1,218.5,416.1z M470.9,143.1c0,2.4,0,4.4,0,6.4
			c0,73.5,0,146.9,0,220.4c0,7.7,0.1,15.3,0,23c-0.2,8.6-7.1,13.2-15.2,10.3c-4.8-1.7-9.6-3.7-14.5-5.2c-41-12.5-81.2-9-120.9,5.8
			c-8.7,3.3-17.2,7.4-25.7,11.1c0.2,0.4,0.3,0.9,0.5,1.3c65,0,130,0,195.4,0c0-91.1,0-182,0-273
			C483.9,143.1,477.8,143.1,470.9,143.1z"/>
	</g>
</g>
</svg>
