<?xml version="1.0" encoding="utf-8"?>
<!-- Generator: Adobe Illustrator 25.4.0, SVG Export Plug-In . SVG Version: 6.00 Build 0)  -->
<svg version="1.1" id="Capa_1" xmlns="http://www.w3.org/2000/svg" xmlns:xlink="http://www.w3.org/1999/xlink" x="0px" y="0px"
	 viewBox="0 0 512 512" style="enable-background:new 0 0 512 512;" xml:space="preserve">
<path d="M17.4,438.7C4.7,438.7,0,434,0,421.3c0-94.5,0-189.1,0-283.6c0-13,4.5-17.5,17.7-17.5c7.6,0,15.3-0.1,22.9-0.1l0-3.7
	c0-4.6,0-9.2,0-13.7c0-8.4,2.8-12.5,10.4-15.5c22.8-9.2,46.9-13.9,71.6-13.9c13.8,0,28.1,1.5,42.5,4.4c31.3,6.3,61.2,19.1,88.9,38.1
	c0.9,0.6,1.6,0.9,2,0.9c0.4,0,1.1-0.3,1.9-0.9c33.7-23.2,70.4-37.1,109.1-41.3c7.6-0.8,15.1-1.2,22.5-1.2c24.3,0,48.1,4.6,70.5,13.5
	c8.9,3.6,11.3,7.2,11.4,16.9c0,5.5,0,11,0.1,16.5h19.3c18.3,0,21.2,3,21.2,21.4l0,279.6c0,12.7-4.7,17.5-17.4,17.5l-238.6,0
	L17.4,438.7z M484.7,411.3V147.4h-13.3v221.2c0,2.3,0,4.6,0,6.8c0,5.2,0.1,10.6-0.1,16c-0.2,8.2-5.7,13.9-13.3,13.9
	c-1.9,0-3.8-0.3-5.7-1c-1.6-0.6-3.2-1.2-4.8-1.8c-3.1-1.2-6.3-2.4-9.4-3.3c-16.1-4.9-32.7-7.4-49.3-7.4c-22,0-45,4.4-68.2,13.1
	c-5.2,1.9-10.3,4.2-15.4,6.5H484.7z M206.8,411.3c-28.8-13.2-56.1-19.6-83.2-19.6c-21.3,0-42.6,4.2-63.4,12.4
	c-2.2,0.9-4.3,1.3-6.2,1.3c-2.8,0-5.5-0.9-7.8-2.6c-4.9-3.6-5.6-8.8-5.6-13.8c0-65.3,0-130.6,0-195.9l0-45.4H27.3v263.7H206.8z
	 M387.5,100.6c-39.6,0-77.3,12.4-115.1,37.9c-2.2,1.5-2.8,2.7-2.8,5.6c0.1,71.9,0.1,144.9,0.1,215.6l0,39.8
	c40.2-23.3,79.1-34.6,118.6-34.6c18.5,0,37.4,2.6,56.1,7.7l0-132.5c0-41.7,0-84.8,0.1-127.2c0-3.4-0.7-3.6-2.6-4
	c-4.5-0.9-8.9-1.9-13.3-2.9c-9-2.1-18.3-4.2-27.4-4.8C396.6,100.7,392,100.6,387.5,100.6z M124,364.8c39.6,0,78.4,11.3,118.4,34.6
	l0-10.8c0-80.6,0-163.9-0.1-245.9c0-1.1-1.1-2.9-1.6-3.3c-3.9-2.2-7.8-4.5-11.6-6.7c-10.8-6.3-22-12.9-33.5-17.6
	c-24-9.9-48.1-14.9-71.7-14.9c-17.8,0-35.7,2.8-53.2,8.4c-2.6,0.8-3,1.4-3,4c0.1,67.7,0.1,136.5,0.1,203.1l0,55.4c0,0.5,0,0.9,0,1.4
	C86.5,367.4,105.4,364.8,124,364.8z"/>
</svg>
