<?xml version="1.0" encoding="utf-8"?>
<!-- Generator: Adobe Illustrator 25.4.0, SVG Export Plug-In . SVG Version: 6.00 Build 0)  -->
<svg version="1.1" id="Capa_1" xmlns="http://www.w3.org/2000/svg" xmlns:xlink="http://www.w3.org/1999/xlink" x="0px" y="0px"
	 viewBox="0 0 512 512" style="enable-background:new 0 0 512 512;" xml:space="preserve">
<g id="sZEj3M_00000010272633650989535210000014060015277611974032_">
	<g>
		<path d="M116.5,219.6c2,0,4,0,5.9,0c116.1,0,232.3,0,348.4-0.1c11.6,0,22.2,2.3,30.4,11.1c10.2,10.9,13.6,23.7,8.2,37.8
			c-5.6,14.4-16.7,22.4-32.1,24.2c-3.1,0.4-6.3,0.3-9.5,0.3c-115.3,0-230.6,0-345.9,0c-2,0-4,0-6.9,0c1.1,1,1.5,1.5,2,1.7
			c12.4,4.9,22.2,13.2,31.4,22.5c31.1,31.4,62.2,62.7,93.5,93.8c11.3,11.3,16.2,24.4,11.6,40c-7,23.4-36.4,32.3-55.7,17.1
			c-2.2-1.7-4.3-3.6-6.3-5.6c-59.5-59.5-119-119-178.5-178.5c-11.3-11.3-16.1-24.5-10.6-40c2-5.6,5.7-11.1,9.9-15.3
			c60-60.4,120.3-120.6,180.5-180.7c14.6-14.6,37.1-15.1,51.4-1.6c14.3,13.5,15,36.6,1,51.8c-11.1,12-22.9,23.3-34.5,34.8
			c-21.7,21.7-43.4,43.3-65,65.1c-8.6,8.7-18.2,15.8-29.7,20.5C116.1,218.8,116.3,219.2,116.5,219.6z"/>
	</g>
</g>
</svg>
