<?xml version="1.0" encoding="utf-8"?>
<!-- Generator: Adobe Illustrator 25.4.0, SVG Export Plug-In . SVG Version: 6.00 Build 0)  -->
<svg version="1.1" id="Capa_1" xmlns="http://www.w3.org/2000/svg" xmlns:xlink="http://www.w3.org/1999/xlink" x="0px" y="0px"
	 viewBox="0 0 512 512" style="enable-background:new 0 0 512 512;" xml:space="preserve">
<g id="JxJ0Lk_00000147218130570758352330000013012483777135198399_">
	<g>
		<path d="M256.3,501c-63.5,0-127,0-190.5,0c-25.7,0-46.3-16.1-52.3-40.5c-1.1-4.4-1.5-9.1-1.5-13.7C12,319.9,12,193,12,66.2
			C12.1,34.8,35,12,66.4,12c126.7,0,253.4,0,380.1,0c31.7,0,54.5,22.8,54.5,54.5c0,126.7,0,253.4,0,380.1
			c0,31.6-22.9,54.4-54.6,54.4C383,501,319.7,501,256.3,501z M472.3,257c0-63.2,0-126.4,0-189.5c0-17-9.7-26.8-26.5-26.8
			c-126.2,0-252.4,0-378.6,0c-16.9,0-26.5,9.8-26.5,26.7c0,126,0,252.1,0,378.1c0,17.2,9.7,26.8,27,26.8c125.9,0,251.7,0,377.6,0
			c17.5,0,27-9.6,27-27.2C472.3,382.4,472.3,319.7,472.3,257z"/>
		<path d="M300.1,207.4c13-6.1,26.5-9.5,40.7-9.9c57.1-1.7,103.8,43.2,104.4,101.2c0.5,43.8,0.1,87.5,0.1,131.3
			c0,10.5-5.8,16.1-16.4,16.1c-21.8,0.1-43.6,0-65.4,0c-11,0-16.5-5.5-16.5-16.4c0-41.2,0-82.4,0-123.7c0-13.1-7-22.4-18.5-24.9
			c-14.3-3.1-27.9,7.4-28.1,22.2c-0.2,17.3-0.1,34.7-0.1,52c0,24.5,0,49,0,73.5c0,11.7-5.5,17.2-17.3,17.2c-21.2,0-42.3,0-63.5,0
			c-11.8,0-17.2-5.5-17.2-17.2c0-71.5,0-142.9,0-214.4c0-11.7,5.5-17.2,17.4-17.2c20.8,0,41.7,0,62.5,0
			C291.8,197.3,294.6,198.9,300.1,207.4z M416.3,417.2c0.2-1.1,0.4-1.7,0.4-2.3c0-39.2,0.7-78.3-0.2-117.4
			c-1.1-46.7-43.1-79.3-88.4-69.5c-11.7,2.5-22.2,7.8-31.2,15.7c-5,4.4-10.5,6.1-16.7,3.4c-6.5-2.9-8.8-8.3-8.5-15.2
			c0.1-1.8,0-3.7,0-5.4c-13.9,0-27.1,0-40.3,0c0,63.7,0,127.1,0,190.7c13.6,0,26.8,0,40.3,0c0-2.3,0-4.2,0-6.1
			c0-36.3-0.3-72.6,0.2-108.9c0.5-34.8,36.1-58.9,68.9-47.3c21.5,7.6,34.9,27.1,34.9,51.2c0.1,35.2,0,70.3,0,105.5
			c0,1.8,0,3.7,0,5.7C389.5,417.2,402.7,417.2,416.3,417.2z"/>
		<path d="M170.5,321.9c0,35.6,0,71.3,0,106.9c0,11.8-5.4,17.3-17.1,17.3c-21.3,0-42.6,0-64,0c-11.2,0-16.8-5.5-16.8-16.6
			c0-71.8,0-143.5,0-215.3c0-11.4,5.6-16.8,17.1-16.9c21.2,0,42.3,0,63.5,0c11.8,0,17.3,5.5,17.3,17.2
			C170.5,250.3,170.5,286.1,170.5,321.9z M101.7,226.1c0,64,0,127.4,0,191c13.6,0,26.7,0,39.8,0c0-63.8,0-127.3,0-191
			C128.1,226.1,115.1,226.1,101.7,226.1z"/>
		<path d="M72.6,116.4C72,89.8,93.7,67.5,120.9,66.9c26.4-0.6,49,21.1,49.6,47.8c0.6,26.8-21,49.4-47.8,50
			C95.6,165.3,73.3,143.8,72.6,116.4z M141.8,115.8c0-11.1-9.2-20.3-20.4-20.3c-11,0.1-20,8.9-20.1,20c-0.2,11.1,9,20.5,20.1,20.5
			C132.5,136.1,141.8,126.9,141.8,115.8z"/>
	</g>
</g>
</svg>
