<?xml version="1.0" encoding="utf-8"?>
<!-- Generator: Adobe Illustrator 25.4.0, SVG Export Plug-In . SVG Version: 6.00 Build 0)  -->
<svg version="1.1" id="Capa_1" xmlns="http://www.w3.org/2000/svg" xmlns:xlink="http://www.w3.org/1999/xlink" x="0px" y="0px"
	 viewBox="0 0 512 512" style="enable-background:new 0 0 512 512;" xml:space="preserve">
<style type="text/css">
	.st0{fill:#FFFFFF;}
</style>
<g id="yDFxyN_00000040552832060100962700000010523844530429599140_">
	<g>
		<path d="M290.7,391.4c-17.5,16.1-34.5,32-51.9,47.5c-5.1,4.5-10.9,8.7-17.1,11.4c-16.1,7-33.3,2.3-43.9-11.8
			c-3.7-4.9-6.6-10.7-8.7-16.5c-15.2-42.6-30.1-85.4-44.9-128.1c-1.1-3.1-2.6-4.7-5.7-5.6c-27.2-7.6-54.4-15.2-81.4-23.4
			c-6.8-2-13.5-5.4-19.1-9.7c-11.9-9.3-12.2-24.7-0.9-34.7c4.9-4.4,11-7.9,17.2-10.3c138.8-53.2,277.6-106.2,416.4-159.2
			c7.7-3,15.7-4.9,24-3.7c19.7,2.9,31.5,20.2,27.6,41.3c-5.4,28.9-11.4,57.6-17.2,86.4c-16.5,81.8-33.1,163.7-49.8,245.5
			c-1.5,7.2-2.9,14.6-5.7,21.3c-9,21.3-30.6,29-51.1,18.3c-5.8-3-11-7.2-16.1-11.3c-22.5-18-44.8-36.1-67.2-54.1
			C293.8,393.7,292.4,392.7,290.7,391.4z M45,237c2.4,0.8,3.3,1.2,4.4,1.5c26.7,7.6,53.4,15.3,80.1,22.8c2,0.6,4.7,0,6.7-1
			c63.4-32.3,126.7-64.6,190-97c17.7-9.1,35.4-18.2,53.2-27.2c7.2-3.6,14.7-2,19,3.8c4.2,5.7,3.7,13.1-1.4,19
			c-0.8,1-1.7,1.9-2.6,2.8c-48,51-96.1,102.1-144.1,153.1c-1.1,1.1-2.1,2.4-3.3,3.7c1.5,1.3,2.6,2.3,3.9,3.3
			c24.2,19.5,48.3,38.9,72.5,58.3c21.2,17,42.2,34.2,63.5,51.1c9.9,7.9,15.3,5.9,18.2-6.4c0.2-0.9,0.4-1.9,0.6-2.8
			c8.8-43.6,17.7-87.2,26.5-130.7c13.7-67.5,27.4-135,40.9-202.5c0.8-3.8-0.2-8-0.4-12.1c-4,0.5-8.3,0.3-12,1.7
			C341.4,123.9,222.2,169.4,103,214.9C84.1,222.1,65.3,229.3,45,237z M317.2,201.4c-0.2-0.2-0.4-0.5-0.6-0.7
			c-54.9,28.1-109.8,56.1-164.9,84.2c13.1,37.4,26,74.4,39.4,112.5c0.7-2.2,1-3.1,1.2-4c6.1-24.5,11.9-49,18.3-73.3
			c1.2-4.6,3.8-9.3,7-12.7c31.1-33.4,62.5-66.6,93.7-99.8C313.4,205.5,315.3,203.5,317.2,201.4z M234,345.7
			c-6.2,25.1-12.3,49.7-18.7,75.7c18.2-16.7,35.2-32.5,52.6-48.4C256.5,363.7,245.5,354.9,234,345.7z"/>
		<path class="st0" d="M234,345.7c11.5,9.2,22.5,18.1,33.9,27.3c-17.3,15.9-34.4,31.7-52.6,48.4"/>
	</g>
</g>
</svg>
