<?xml version="1.0" encoding="utf-8"?>
<!-- Generator: Adobe Illustrator 25.4.0, SVG Export Plug-In . SVG Version: 6.00 Build 0)  -->
<svg version="1.1" id="Layer_1" xmlns="http://www.w3.org/2000/svg" xmlns:xlink="http://www.w3.org/1999/xlink" x="0px" y="0px"
	 viewBox="0 0 834.4 933.4" style="enable-background:new 0 0 834.4 933.4;" xml:space="preserve">
<g id="ozmNsT_00000084507895787169318800000015233615550150507140_">
	<g>
		<path d="M371.2,342c0,68.5,0,136.9,0,206.3c-12.5-4.1-24.4-8.2-36.4-11.9c-55.4-17-112.6,12.2-129.5,66.9
			c-12.1,39.1-3.4,74.4,25.7,103c29.9,29.4,66.3,37.8,105.9,24c38.4-13.4,61.2-41.5,67.7-81.9c1.2-7.4,1.4-15.1,1.4-22.7
			c0.1-204.6,0.1-409.1,0.2-613.7c0-3.9,0-7.8,0-12.1c66.1,0,131.3,0,198.3,0c0,8.3,0,16.7,0,25c0.2,45,13.9,85.6,42.1,120.6
			c38,47.2,87.8,71.5,148.4,74c13,0.5,26,1.4,39.5,2.1c0,65.3,0,129.9,0,194.7c-80.9,5.1-157.2-10-229.6-51.1c0,4.9,0,8.3,0,11.7
			c0.1,86.6,0.9,173.3,0.2,259.9c-1.1,138.4-99,258.6-233.9,288.7C235.7,956,100,894.5,34.4,773.1C-30,653.9-1.8,499.7,100.8,410.8
			c72.1-62.4,155.6-85.6,249.7-72.5c6.3,0.9,12.6,1.9,18.9,2.8C369.7,341.2,369.9,341.4,371.2,342z M460.9,54.7c0,4.3,0,8.2,0,12.1
			c0,186.6,0,373.2-0.2,559.8c0,10.9-0.3,22-2.2,32.7c-15.7,90.1-99.9,146.9-189.4,128.1c-73.4-15.4-125.4-82.3-123.6-159.1
			c1.8-73.2,58.4-138,131-149.1c13-2,26.4-2.1,39.7-3.1c0-28.5,0-56.9,0-87.8c-19.9,1.7-39.3,2.1-58.3,5.3
			c-128,21.7-217.3,141.8-201.6,270c16.7,136.7,148.2,239,293.9,210.4c120.4-23.7,200.3-122.8,200.1-245.3
			c-0.1-119.1-0.4-238.3-0.6-357.4c0-3.5,0-6.9,0-10.4c0.7-0.5,1.4-1,2.1-1.5c65.4,57.6,138.2,98.6,227.5,102.3
			c0-29.8,0-58.8,0-87.8c-59.3-5.5-110.3-28.1-152.9-68.8c-42.8-40.9-67.3-91.3-75.4-150.2C521,54.7,491.4,54.7,460.9,54.7z"/>
	</g>
</g>
</svg>
