<?xml version="1.0" encoding="utf-8"?>
<!-- Generator: Adobe Illustrator 25.4.0, SVG Export Plug-In . SVG Version: 6.00 Build 0)  -->
<svg version="1.1" id="Layer_1" xmlns="http://www.w3.org/2000/svg" xmlns:xlink="http://www.w3.org/1999/xlink" x="0px" y="0px"
	 viewBox="0 0 220.1 256.7" style="enable-background:new 0 0 220.1 256.7;" xml:space="preserve">
<g>
	<g id="dEcnMT_00000044887319635016034030000007071350620884404379_">
		<g>
			<path d="M0,128.7C0,95.2,0,61.7,0,28.1c0-9,3.2-16.4,10.3-21.9c4.4-3.4,9.4-5.2,15-5.2C45,1,64.7,1,84.3,1c14.1,0,28.3,0,42.4,0
				c15.5,0,26.7,11,26.7,26.5c0.1,67.6,0.1,135.1,0,202.7c0,15.5-11.2,26.5-26.7,26.5c-33.3,0-66.6,0-99.8,0
				c-15.7,0-26.8-11-26.8-26.8C0,196.1,0,162.4,0,128.7z M12.8,128.6c0,33.5,0,67,0,100.6c0,9.6,5,14.7,14.5,14.7
				c32.9,0,65.9,0,98.8,0c9.4,0,14.4-5.1,14.4-14.5c0-67,0-133.9,0-200.9c0-9.5-5-14.5-14.4-14.5c-33,0-66,0-99.1,0
				c-1.6,0-3.2,0-4.7,0.4c-6.1,1.6-9.6,6.5-9.6,13.4C12.8,61.4,12.8,95,12.8,128.6z"/>
			<path d="M76.7,235.3c-7,0-12.6-5.7-12.7-12.7c-0.1-7,5.8-12.9,12.8-12.8c6.9,0.1,12.6,5.8,12.7,12.7
				C89.5,229.6,83.8,235.3,76.7,235.3z"/>
			<path d="M87.2,35.1c-4.1,0-8.1,0-12.2,0c-4-0.1-6.8-2.8-6.8-6.4c0-3.5,2.8-6.2,6.7-6.2c8.3-0.1,16.6-0.1,24.9,0
				c3.8,0,6.7,2.8,6.7,6.3c0,3.6-2.9,6.3-6.9,6.4c-0.2,0-0.3,0-0.5,0C95.2,35.1,91.2,35.1,87.2,35.1z"/>
			<path d="M53.3,22.4c3.4,0,6.4,3,6.4,6.3c0,3.4-3,6.3-6.4,6.3c-3.4,0-6.4-3-6.4-6.3C46.9,25.4,49.9,22.4,53.3,22.4z"/>
		</g>
	</g>
	<g>
		<path d="M181.8,38.6h-0.2l-14.9,7.1l-3-13.7l20.7-9.6h15v77.9h-17.6V38.6z"/>
	</g>
</g>
</svg>
