<?xml version="1.0" encoding="utf-8"?>
<!-- Generator: Adobe Illustrator 25.4.0, SVG Export Plug-In . SVG Version: 6.00 Build 0)  -->
<svg version="1.1" id="Layer_1" xmlns="http://www.w3.org/2000/svg" xmlns:xlink="http://www.w3.org/1999/xlink" x="0px" y="0px"
	 viewBox="0 0 250 250" style="enable-background:new 0 0 250 250;" xml:space="preserve">
<path d="M214.6,15.5c0.6,0.3,1.4,0.5,2.2,0.7c9,2.5,14.4,7.9,16.9,16.9c0.2,0.8,0.5,1.6,0.7,2.2v178.3c-0.3,0.7-0.6,1.5-0.8,2.4
	c-2.6,10.3-11.2,17.2-21.4,17.2c-32.5,0.1-61.6,0.1-89,0.1c-30.1,0-57.8,0-84.8-0.1c-12.2,0-21.7-9.6-21.8-21.8
	c-0.2-51.3-0.2-106.5,0-173.8c0-10.2,6.9-18.8,17.2-21.4c0.9-0.2,1.7-0.5,2.4-0.8H214.6 M216.6,5.5c-60.7,0-121.5,0-182.2,0
	c-1,0.4-1.9,0.9-2.9,1.1c-14.5,3.7-24.7,16-24.7,31.1c-0.2,57.9-0.2,115.9,0,173.8c0.1,17.6,14.1,31.7,31.8,31.8
	c28.3,0.1,56.6,0.1,84.9,0.1c29.7,0,59.3,0,89-0.1c15,0,27.3-10.2,31.1-24.7c0.3-1,0.7-1.9,1.1-2.9c0-60.7,0-121.5,0-182.2
	c-0.4-1-0.8-1.9-1.1-2.9c-3.5-12.5-11.4-20.4-23.9-23.9C218.5,6.4,217.6,5.9,216.6,5.5L216.6,5.5z"/>
<g>
	<path d="M173.1,89.6c4.1,0,8.1,0,12.3,0c0.3,1.6,0.6,3,1,4.7c6.6,0.1,14.2-0.7,17.6,5.8c2.8,5.3,3.1,11.9,4.7,18.5
		c0.8,0.1,2.6,0.2,4.4,0.7c5.6,1.6,8.9,5.6,9.1,11.5c0.2,5.9,0.2,11.8,0,17.7c-0.1,5.4-3.6,9.4-8.8,10.6c-0.3,0.1-0.6,0.1-0.9,0.1
		c-13,1.3-11.5,1.9-16-11.3c3.2,0,6,0,8.8,0c2.5,0,3.7-0.9,3.7-3.5c-0.1-12.4,1.3-12.5-11.4-12.3c-3.7,0.1-7.4,0-11.6,0
		c0,7.8-0.2,15.2,0.1,22.5c0.2,4.1-1.1,5.7-5.2,5.2c-2.5-0.3-5.2-0.1-8.1-0.1c0-9.4,0-18.2,0-27.5c-4.3,0-8.3,0-12.6,0
		c0-4.5,0-8.6,0-13.4c3.9,0,8,0,12.3,0c0-3.8,0-7,0-10.8c-2.4-0.1-5-0.3-7.9-0.4c0-4.3,0-8.5,0-13c2.6-0.1,5-0.3,7.8-0.4
		C172.6,92.7,172.8,91.3,173.1,89.6z M193.8,118.6c1.2-11,0.2-12.2-7.4-10c0,3.3,0,6.6,0,10C189,118.6,191.3,118.6,193.8,118.6z"/>
	<path d="M160.8,146.3c0,4.6,0,8.6,0,13c-14.3,0-28.4,0-43.4,0c1.9-4.2,2.7-8.8,5.5-11.3c2.6-2.2,7.2-2,11.5-3c0-11.8,0-24.2,0-36.6
		c-2.5-0.6-6.8-0.7-7.1-1.7c-0.9-3.8-0.3-7.8-0.3-12.1c9.9,0,19.4,0,29.4,0c0,4.3,0,8.5,0,12.9c-2.5,0.2-4.7,0.3-7.3,0.5
		c0,12.5,0,24.8,0,37.6C152.8,145.9,156.5,146.1,160.8,146.3z"/>
	<path d="M44.2,148.8c8.6-1.3,8.6-1.3,8.6-9.6c0-16.1,0-32.2,0-49c4,0,7.7-0.2,11.3,0.1c0.7,0.1,1.9,1.9,1.9,2.9
		c0.1,18.6,0.3,37.1,0,55.7c-0.1,7.9-8,13-15.7,10.7c-0.8-0.2-1.7-0.9-2-1.6C46.8,155.1,45.6,152.1,44.2,148.8z"/>
	<path d="M118.7,89.3c-2.8,6.4-5,11.6-7.6,17.6c4.3,0.3,7.9,0.6,12.2,0.9c-3.3,7.5-6.3,14.5-9.7,22.2c2.9,0.2,5.3,0.4,8.5,0.7
		c-1.6,3.5-2.7,6.8-4.5,9.8c-1.6,2.6-17.7,1.7-19.1-1c-0.7-1.4-0.6-3.6-0.1-5.2c1.6-4.6,3.7-9.1,5.6-13.7
		c-11.3-1.7-11.7-2.6-7.1-12.9c2.2-4.9,4.6-9.8,6.6-14.8c1.1-2.8,2.7-3.8,5.5-3.6C112,89.4,114.9,89.3,118.7,89.3z"/>
	<path d="M31.6,107.6c4.3,0,8.4,0,13.2,0C42.5,123.1,45,139.1,35,154c-2.7-7.5-7.8-12.7-5.8-20.9c1.5-6.5,1.1-13.5,1.6-20.3
		C30.9,111.1,31.3,109.4,31.6,107.6z"/>
	<path d="M83.8,153.8c-10.1-14.7-7.4-30.8-9.7-46.3c4.8,0,8.9,0,13.5,0c0.6,8.1,0.4,16.3,2.1,24.1C91.3,140,87.2,146.1,83.8,153.8z"
		/>
	<path d="M89.6,159.6c2.4-5.3,4.1-9.1,5.9-12.8c0.3-0.6,1.1-1.3,1.7-1.3c6.3,0.2,12.5,0.5,19.7,0.8c-2,4.4-3.7,8.3-5.5,12.1
		c-0.2,0.5-0.9,1-1.4,1C103.5,159.6,97.1,159.6,89.6,159.6z"/>
	<path d="M209.4,107.4c-0.4-4.6-1.7-9.6,3.2-12c2-1,6-0.3,7.7,1.3c1.5,1.3,2,5.4,1,7.3C218.9,108.9,214.1,108,209.4,107.4z"/>
</g>
</svg>
