<?xml version="1.0" encoding="utf-8"?>
<!-- Generator: Adobe Illustrator 23.0.3, SVG Export Plug-In . SVG Version: 6.00 Build 0)  -->
<svg version="1.1" id="Capa_1" xmlns="http://www.w3.org/2000/svg" xmlns:xlink="http://www.w3.org/1999/xlink" x="0px" y="0px"
	 viewBox="0 0 512 512" style="enable-background:new 0 0 512 512;" xml:space="preserve">
<style type="text/css">
	.st0{fill:#1BD741;}
	.st1{fill:#FFFFFF;}
</style>
<g>
	<path class="st0" d="M63.9,0h384.2C483.4,0,512,28.6,512,63.9v384.2c0,35.3-28.6,63.9-63.9,63.9H63.9C28.6,512,0,483.4,0,448.1
		V63.9C0,28.6,28.6,0,63.9,0z"/>
	<g>
		<path class="st1" d="M77,435.2l25.1-89.1c-16.1-27.4-24.6-58.6-24.6-90.6c0-98.6,80.2-178.8,178.8-178.8S435,157,435,255.6
			s-80.2,178.8-178.8,178.8c-30.7,0-60.8-7.9-87.4-22.8L77,435.2z M173.5,379.1l5.5,3.3c23.2,14.2,49.9,21.7,77.3,21.7
			c81.9,0,148.5-66.6,148.5-148.5s-66.6-148.5-148.5-148.5s-148.5,66.6-148.5,148.5c0,28.5,8.1,56.2,23.4,80.1l3.7,5.7l-14.4,51.3
			L173.5,379.1z"/>
		<path class="st1" d="M206,172.3l-11.6-0.6c-3.6-0.2-7.2,1-10,3.4c-5.6,4.9-14.6,14.3-17.4,26.6c-4.1,18.3,2.2,40.8,18.7,63.3
			s47.2,58.4,101.5,73.8c17.5,4.9,31.3,1.6,41.9-5.2c8.4-5.4,14.2-14,16.3-23.8l1.9-8.7c0.6-2.8-0.8-5.5-3.4-6.7l-39.2-18.1
			c-2.5-1.2-5.6-0.4-7.3,1.8l-15.4,20c-1.2,1.5-3.2,2.1-5,1.5c-10.5-3.7-45.9-18.5-65.2-55.8c-0.8-1.6-0.6-3.6,0.6-5l14.7-17
			c1.5-1.7,1.9-4.2,1-6.3L211.2,176C210.3,173.9,208.3,172.5,206,172.3z"/>
	</g>
</g>
</svg>
